#  Copyright 2013 Matus Chochlik. Distributed under the Boost
#  Software License, Version 1.0. (See accompanying file
#  LICENSE_1_0.txt or copy at http://www.boost.org/LICENSE_1_0.txt)
o arrow
v -0.000000 -0.250000 1.000000
v -1.000000 -0.250000 -0.000000
v 1.000000 -0.250000 0.000000
v -0.000000 0.250000 1.000000
v -0.999999 0.250000 -0.000001
v 1.000000 0.250000 0.000001
v -0.500000 -0.250000 -0.000000
v 0.500000 -0.250000 0.000000
v -0.499999 0.250000 -0.000000
v 0.500001 0.250000 0.000000
v 0.500000 -0.250000 -1.000000
v 0.500001 0.250000 -1.000000
v -0.500000 -0.250000 -1.000000
v -0.499999 0.250000 -1.000000
vn -0.707107 0.000001 0.707106
vn 0.707106 -0.000000 0.707107
vn 0.000000 -1.000000 -0.000000
vn -0.000000 1.000000 0.000000
vn 0.000001 -0.000001 -1.000000
vn 0.000001 0.000000 -1.000000
vn 1.000000 -0.000001 0.000000
vn -1.000000 0.000002 -0.000000
vn 0.000000 -0.000000 -1.000000
usemtl Material
s off
f 1//1 4//1 5//1 2//1
f 4//2 1//2 3//2 6//2
f 7//3 1//3 2//3
f 8//3 1//3 7//3
f 3//3 1//3 8//3
f 6//4 10//4 4//4
f 10//4 9//4 4//4
f 9//4 5//4 4//4
f 5//5 9//5 7//5 2//5
f 10//6 6//6 3//6 8//6
f 10//7 8//7 11//7 12//7
f 7//8 9//8 14//8 13//8
f 9//4 10//4 12//4 14//4
f 8//3 7//3 13//3 11//3
f 14//9 12//9 11//9 13//9
