#  Copyright 2013 Matus Chochlik. Distributed under the Boost
#  Software License, Version 1.0. (See accompanying file
#  LICENSE_1_0.txt or copy at http://www.boost.org/LICENSE_1_0.txt)
#
# vertices
v  -0.5 -0.5 -0.5
v   0.5 -0.5 -0.5
v   0.5 -0.5  0.5
v  -0.5 -0.5  0.5
v  -0.5  0.5 -0.5
v   0.5  0.5 -0.5
v   0.5  0.5  0.5
v  -0.5  0.5  0.5

# texture coordinates
vt  0.0  0.0  0.0
vt  1.0  0.0  0.0
vt  0.0  1.0  0.0
vt  1.0  1.0  0.0

# normals
vn  1.0  0.0  0.0
vn -1.0  0.0  0.0
vn  0.0  1.0  0.0
vn  0.0 -1.0  0.0
vn  0.0  0.0  1.0
vn  0.0  0.0 -1.0

o Cube
g Cube

s off
# x+
f 3/1/1 6/4/1 7/3/1
f 3/1/1 2/2/1 6/3/1
# x-
f 1/1/2 8/4/2 5/3/2
f 1/1/2 4/2/2 8/3/2
# y+
f 8/1/3 6/4/3 5/3/3
f 8/1/3 7/2/3 6/3/3
# y-
f 1/1/4 3/4/4 4/3/4
f 1/1/4 2/2/4 3/3/4
# z+
f 4/1/5 7/4/5 8/3/5
f 4/1/5 3/2/5 7/3/5
# z-
f 2/1/6 5/4/6 6/3/6
f 2/1/6 1/2/6 5/3/6
